<svg width="27" height="42" viewBox="0 0 27 42" fill="none" xmlns="http://www.w3.org/2000/svg">
<path d="M13.08 41.9972L12.5543 41.0708C12.479 40.9378 4.96369 27.6895 2.87533 23.8103C1.54868 21.3433 0 17.3152 0 14.0804C0 6.86646 5.86652 0.997192 13.0773 0.997192C20.2872 0.997192 26.1533 6.86646 26.1533 14.0804C26.1533 17.205 24.7061 21.4238 23.3438 23.8075C20.9055 28.0596 13.674 40.939 13.6015 41.0684L13.08 41.9972ZM13.0773 2.19924C6.52925 2.19924 1.2021 7.52924 1.2021 14.0804C1.2021 16.8985 2.57404 20.7118 3.93357 23.2406C5.69222 26.507 11.3222 36.458 13.0745 39.551C14.7874 36.5021 20.2443 26.7955 22.2995 23.2105C23.6026 20.9306 24.9505 16.8913 24.9505 14.0804C24.9513 7.52924 19.6245 2.19924 13.0773 2.19924ZM13.0773 19.9778C9.80485 19.9778 7.1427 17.3148 7.1427 14.0416C7.1427 10.7676 9.80485 8.10376 13.0773 8.10376C16.3484 8.10376 19.0102 10.7676 19.0102 14.0416C19.0098 17.3148 16.3485 19.9778 13.0773 19.9778ZM13.0773 9.30585C10.4676 9.30585 8.34479 11.4303 8.34479 14.0416C8.34479 16.652 10.4676 18.7757 13.0773 18.7757C15.6858 18.7757 17.8082 16.6517 17.8082 14.0416C17.8078 11.4303 15.6853 9.30585 13.0773 9.30585Z" fill="#C5C8C5"/>
</svg>
