<svg width="70" height="70" viewBox="0 0 70 70" fill="none" xmlns="http://www.w3.org/2000/svg">
<circle cx="35" cy="35" r="35" fill="#419A62"/>
<path d="M34.4449 34.235H32.6209L33.7069 32.883C35.1119 31.227 35.0539 30.096 34.7559 29.438C34.4439 28.748 33.7189 28.31 32.8649 28.296C31.8819 28.28 30.9729 28.821 30.5559 29.666C30.5149 29.748 30.5089 29.843 30.5389 29.93C30.5679 30.017 30.6309 30.088 30.7139 30.129L31.3339 30.435C31.5049 30.519 31.7129 30.449 31.7969 30.278C32.0149 29.836 32.4849 29.679 32.8209 29.679H32.8429C33.1619 29.684 33.4069 29.807 33.4969 30.008C33.6379 30.32 33.4889 31.006 32.6479 31.995L32.6419 32.002L30.1899 35.055C30.1069 35.159 30.0899 35.301 30.1479 35.421C30.2059 35.541 30.3269 35.617 30.4599 35.617H34.4469C34.6379 35.617 34.7929 35.462 34.7929 35.271V34.58C34.7909 34.39 34.6359 34.235 34.4449 34.235ZM38.3149 28.462C39.1119 28.462 39.7439 28.783 40.2119 29.425C40.6799 30.067 40.9139 30.938 40.9139 32.038C40.9139 33.142 40.6799 34.014 40.2119 34.656C39.7439 35.298 39.1119 35.619 38.3149 35.619C37.5249 35.619 36.8979 35.298 36.4359 34.656C35.9739 34.014 35.7419 33.142 35.7419 32.038C35.7419 30.934 35.9729 30.063 36.4359 29.423C36.8989 28.783 37.5249 28.462 38.3149 28.462ZM38.3259 29.675C37.9589 29.675 37.6679 29.884 37.4549 30.301C37.2419 30.718 37.1349 31.293 37.1349 32.027C37.1349 32.771 37.2409 33.353 37.4519 33.771C37.6629 34.19 37.9539 34.399 38.3249 34.399C38.6959 34.399 38.9879 34.19 39.2009 33.771C39.4139 33.352 39.5209 32.771 39.5209 32.027C39.5209 31.294 39.4139 30.718 39.2009 30.301C38.9889 29.884 38.6969 29.675 38.3259 29.675Z" fill="#FCFCFC"/>
<path d="M35.537 45.603L38.426 53.766L41.93 47.827L48.389 50.24L44.982 40.614M35.351 18L38.018 20.33L41.22 19.248L42.709 22.461L46.074 22.775L46.127 26.316L49.074 27.972L47.683 31.228L49.702 33.939L47.106 36.348L47.847 39.646L44.496 40.791L43.832 44.105L40.305 43.788L38.35 46.546L35.257 44.822L32.35 46.546L30.226 43.713L26.869 44.105L26.081 40.653L22.854 39.646L23.538 36.172L21 33.938L23.038 31.042L21.627 27.971L24.666 26.155L24.627 22.775L28.142 22.352L29.481 19.248L32.865 20.291C32.865 20.291 35.351 18 35.351 18ZM35.766 46.254L32.365 53.701L28.949 48.185L22.329 50.391L25.967 40.814L35.766 46.254Z" stroke="white" stroke-width="1.5" stroke-miterlimit="22.926" stroke-linecap="round" stroke-linejoin="round"/>
<path d="M35.351 23.14C40.391 23.14 44.477 27.226 44.477 32.266C44.477 37.306 40.391 41.391 35.351 41.391C30.311 41.391 26.225 37.305 26.225 32.266C26.225 27.225 30.311 23.14 35.351 23.14Z" stroke="white" stroke-miterlimit="22.926"/>
</svg>
