<svg width="70" height="70" viewBox="0 0 70 70" fill="none" xmlns="http://www.w3.org/2000/svg">
<circle cx="35" cy="35" r="35" fill="#419A62"/>
<path d="M52.0233 34.95L51.6273 34.582C51.5113 34.444 51.2863 34.319 51.1063 34.304C50.9273 34.289 50.3943 34.728 50.7183 34.456L49.2313 35.706C49.4413 32.693 48.7733 29.671 47.2773 26.997C44.5173 22.064 39.2803 19 33.6093 19C30.9563 19 28.3253 19.687 26.0013 20.988C22.3633 23.024 19.7333 26.361 18.5973 30.384C17.4613 34.407 17.9563 38.626 19.9923 42.265C22.7543 47.202 27.5213 50.159 33.1693 50.159H34.0653C34.4393 50.118 34.6913 49.919 34.6503 49.545L34.6283 48.888C34.5873 48.514 34.4383 48.247 34.0633 48.288C33.5373 48.28 33.6813 48.285 33.1903 48.259C28.2323 47.993 24.5243 46.201 21.4613 40.771C17.8633 34.34 20.6143 26.111 27.0443 22.513C29.0313 21.401 31.3393 20.825 33.6063 20.825C38.4553 20.825 43.1223 23.421 45.4813 27.637C46.7683 29.938 47.4303 33.101 47.3723 35.726L45.6013 34.201C45.3593 33.913 45.0343 33.958 44.7473 34.2L44.2473 34.7C44.1093 34.816 44.0913 34.989 44.0753 35.169L44.4433 35.727L47.3983 38.472C47.5333 38.632 47.8503 38.748 48.0443 38.748C48.1993 38.748 48.6253 38.517 48.7523 38.409L51.9193 35.826C52.0573 35.71 52.1533 35.568 52.1693 35.388C52.1853 35.208 52.1393 35.088 52.0233 34.95ZM42.0663 47.5H39.9793L41.2213 45.954C42.8293 44.06 42.7613 42.766 42.4213 42.014C42.0643 41.225 41.2353 40.724 40.2583 40.708C39.1343 40.69 38.0943 41.308 37.6173 42.275C37.5713 42.369 37.5633 42.478 37.5973 42.577C37.6313 42.676 37.7033 42.758 37.7973 42.805L38.5063 43.155C38.7023 43.252 38.9393 43.171 39.0363 42.975C39.2853 42.469 39.8233 42.29 40.2073 42.29H40.2323C40.5973 42.296 40.8773 42.437 40.9803 42.666C41.1413 43.023 40.9713 43.807 40.0093 44.938L40.0023 44.947L37.1973 48.439C37.1023 48.558 37.0833 48.72 37.1493 48.858C37.2153 48.995 37.3543 49.082 37.5063 49.082H42.0673C42.2853 49.082 42.4623 48.905 42.4623 48.687V47.895C42.4623 47.677 42.2853 47.5 42.0663 47.5ZM48.7483 45.86H48.3773V41.335C48.3773 41.117 48.2003 40.94 47.9823 40.94H47.1863C47.0573 40.94 46.9373 41.002 46.8633 41.107L42.8323 46.818C42.7473 46.939 42.7363 47.097 42.8043 47.228C42.8723 47.359 43.0073 47.442 43.1553 47.442H46.7953V48.616C46.7953 48.834 46.9723 49.011 47.1903 49.011H47.9813C48.1993 49.011 48.3763 48.834 48.3763 48.616V47.442H48.7473C48.9653 47.442 49.1423 47.265 49.1423 47.047V46.255C49.1443 46.037 48.9673 45.86 48.7483 45.86ZM46.7963 45.86H45.4453L46.7963 43.946V45.86ZM41.7703 27.138L41.1283 26.496C41.0433 26.411 40.9273 26.363 40.8073 26.363C40.6873 26.363 40.5713 26.411 40.4863 26.496L33.6353 33.347L29.3763 29.088C29.2913 29.003 29.1763 28.955 29.0553 28.955C28.9353 28.955 28.8193 29.003 28.7343 29.088L28.0923 29.73C27.9153 29.907 27.9153 30.195 28.0923 30.372L33.3143 35.594C33.3993 35.679 33.5143 35.727 33.6353 35.727C33.7563 35.727 33.8713 35.679 33.9563 35.594L41.7703 27.78C41.9473 27.602 41.9473 27.315 41.7703 27.138Z" fill="white"/>
</svg>
