<svg width="70" height="70" viewBox="0 0 70 70" fill="none" xmlns="http://www.w3.org/2000/svg">
<circle cx="35" cy="35" r="35" fill="#419A62"/>
<path d="M52.6257 25.4657C52.5367 25.3267 52.3987 25.2287 52.2367 25.1937C51.9077 25.1197 51.5537 25.3477 51.4837 25.6577C51.4237 25.8857 51.2327 26.5027 50.7887 27.2827L50.5827 27.6467L41.0647 18.1297L41.4307 17.9237C42.3487 17.4077 43.0317 17.2477 43.0617 17.2417C43.3977 17.1627 43.6077 16.8247 43.5317 16.4887C43.4607 16.1727 43.1197 15.9357 42.7737 16.0157C42.6827 16.0377 33.6627 18.4487 35.3117 31.5447L35.3607 31.9327L34.9707 31.9007C34.2667 31.8477 33.5637 31.8217 32.8817 31.8217C22.2947 31.8217 18.2547 38.4217 18.0887 38.7027C17.9417 38.9487 17.9807 39.2667 18.1817 39.4627L18.3167 39.5697C18.5597 39.7137 19.0167 39.5967 19.1687 39.3457C19.2427 39.2237 19.6537 38.5767 20.4747 37.7447L20.6997 37.5167L31.2087 48.0287L30.9797 48.2547C30.1447 49.0747 29.5057 49.4807 29.3867 49.5537C29.0867 49.7327 28.9857 50.1237 29.1617 50.4207L29.2607 50.5447C29.3697 50.6507 29.5407 50.7167 29.7177 50.7167C29.8327 50.7167 29.9387 50.6877 30.0227 50.6387C30.3397 50.4507 37.7717 45.9067 36.8227 33.7507L36.7927 33.3607L37.1807 33.4097C38.2687 33.5497 39.3257 33.6187 40.3247 33.6187C50.8077 33.6187 52.6907 26.0257 52.7097 25.9467C52.7467 25.7807 52.7157 25.6097 52.6257 25.4657ZM34.6107 42.3717C34.1087 43.8187 33.4267 45.1587 32.6007 46.3347L31.9537 47.0907L21.6307 36.7327L22.3657 36.1407C23.5577 35.2977 24.8997 34.6157 26.3647 34.1077L26.9687 33.8397L34.8237 41.7407L34.6107 42.3717ZM35.3237 39.5997L35.2177 40.2007L28.5237 33.5057L29.1257 33.3997C31.0027 33.0657 33.1147 32.9897 35.2487 33.1847L35.5147 33.2117L35.5377 33.4757C35.7347 35.6277 35.6617 37.6877 35.3237 39.5997ZM42.1887 32.2697C40.5797 32.4347 38.7927 32.3807 36.8867 32.1097L36.6497 32.0737L36.6157 31.8387C36.3427 29.9227 36.2847 28.1337 36.4447 26.5227L36.5557 25.4277L43.2987 32.1947L42.1887 32.2697ZM49.2407 29.2717C48.1247 30.3537 46.7347 31.1647 45.1367 31.6767L44.7177 31.7477L36.9017 23.9957L37.0247 23.6017C37.5387 21.9667 38.3467 20.5777 39.4287 19.4657L39.8657 19.0037L49.7087 28.7027L49.2407 29.2717Z" fill="white" stroke="white" stroke-width="0.5" stroke-miterlimit="10"/>
</svg>
