<svg width="70" height="70" viewBox="0 0 70 70" fill="none" xmlns="http://www.w3.org/2000/svg">
<circle cx="35" cy="35" r="35" fill="#419A62"/>
<path d="M32.5618 35.63C32.6348 36.487 32.4458 37.624 31.6348 38.542C31.5508 38.638 31.4558 38.729 31.3558 38.816L35.0568 47.352L39.0518 38.917C38.8968 38.8 38.7578 38.675 38.6358 38.54C37.9228 37.749 37.7738 36.509 37.8398 35.619" stroke="white" stroke-width="1.5" stroke-miterlimit="22.9256" stroke-linecap="round" stroke-linejoin="round"/>
<path d="M47.8268 49.972C48.7258 43.695 46.8198 40.997 39.0508 38.917" stroke="white" stroke-width="1.5" stroke-miterlimit="22.9256" stroke-linecap="round" stroke-linejoin="round"/>
<path d="M31.3548 38.816L28.0918 40.018C22.6478 42.052 21.2268 44.202 22.3648 49.972" stroke="white" stroke-width="1.5" stroke-miterlimit="22.9256" stroke-linecap="round" stroke-linejoin="round"/>
<path d="M43.6308 48.982H39.1678" stroke="white" stroke-width="1.5" stroke-miterlimit="22.9256" stroke-linecap="round" stroke-linejoin="round"/>
<path d="M35.2028 36.37C40.9118 35.906 42.4448 30.415 42.7578 28.383C42.8368 28.304 42.8878 28.2 42.8988 28.086L43.1518 25.433C43.3088 25.353 43.4158 25.191 43.4158 25.003V17.583C43.4158 17.401 43.3138 17.235 43.1518 17.152C38.1738 14.616 32.2308 14.616 27.2528 17.152C27.0908 17.234 26.9888 17.401 26.9888 17.583V25.003C26.9888 25.191 27.0968 25.354 27.2528 25.433L27.5058 28.086C27.5168 28.2 27.5678 28.304 27.6468 28.383C27.9588 30.413 28.8358 35.576 35.0658 36.37H35.2028ZM28.4448 27.741L28.2298 25.486H28.9318C28.8108 26.17 28.6908 27.158 28.6158 27.835L28.4448 27.741ZM28.7848 29.034C28.8578 29.074 28.9378 29.094 29.0188 29.094C29.0958 29.094 29.1728 29.076 29.2428 29.039C29.3868 28.964 29.4828 28.821 29.4988 28.659C29.5938 27.714 29.7718 26.203 29.9118 25.486H40.4928C40.6318 26.202 40.8108 27.714 40.9058 28.659C40.9218 28.821 41.0188 28.963 41.1618 29.039C41.2318 29.076 41.3088 29.094 41.3858 29.094C41.4668 29.094 41.5468 29.074 41.6198 29.034L41.6548 29.015C40.9188 32.304 38.7448 35.343 35.2018 35.343C31.6588 35.343 29.4848 32.304 28.7488 29.015L28.7848 29.034ZM41.9608 27.741L41.7908 27.836C41.7158 27.159 41.5968 26.171 41.4748 25.487H42.1768L41.9608 27.741ZM27.9558 17.882C32.5158 15.661 37.8898 15.661 42.4498 17.882V24.52H27.9558V17.882Z" fill="white"/>
<path d="M35.2028 36.37C35.6908 36.283 36.1918 36.248 36.6608 36.085C36.8968 36.013 37.1408 35.964 37.3638 35.854C37.5898 35.753 37.8228 35.669 38.0408 35.555L38.6798 35.184L39.2728 34.744C39.4698 34.598 39.6358 34.413 39.8188 34.249C40.0058 34.089 40.1488 33.886 40.3148 33.705C40.6298 33.33 40.9118 32.925 41.1558 32.5C41.4058 32.079 41.6208 31.635 41.8098 31.183C42.1908 30.279 42.4538 29.324 42.6018 28.358L42.6468 28.27C42.6658 28.231 42.6988 28.203 42.7128 28.164C42.7178 28.116 42.7388 28.099 42.7418 28.029L42.7738 27.656L42.8388 26.909L42.9688 25.416L42.9778 25.317L43.0688 25.27C43.1658 25.22 43.2298 25.115 43.2278 25.008L43.2238 24.488L43.2148 23.443L43.2028 21.352L43.1968 19.261L43.1938 18.216C43.1808 17.904 43.2348 17.402 43.1008 17.39C43.0828 17.381 43.0568 17.36 43.0498 17.354L42.9298 17.303L42.6898 17.199L42.2098 16.991L41.2508 16.576C40.5998 16.357 39.9418 16.181 39.2898 15.98C38.6178 15.845 37.9368 15.741 37.2608 15.619L35.2028 15.5L33.1448 15.619C32.4688 15.741 31.7888 15.845 31.1158 15.981C30.4588 16.183 29.7938 16.362 29.1438 16.581C28.5298 16.857 27.8448 17.123 27.2868 17.405C27.1758 17.445 27.2258 17.875 27.2128 18.216L27.2098 19.261L27.2038 21.352L27.1918 23.443L27.1828 24.488C27.1918 24.851 27.1118 25.182 27.3378 25.27L27.4278 25.305L27.4378 25.417L27.5668 26.91L27.6318 27.657L27.6638 28.03C27.6558 28.037 27.6898 28.136 27.6998 28.184C27.7218 28.233 27.7468 28.234 27.7588 28.271L27.8038 28.359C27.9408 29.334 28.1388 30.296 28.4838 31.211C28.6488 31.67 28.8568 32.114 29.0968 32.538C29.3338 32.964 29.6108 33.369 29.9328 33.737C30.0818 33.932 30.2588 34.1 30.4368 34.268C30.6068 34.445 30.7938 34.603 30.9938 34.745C31.1888 34.894 31.3798 35.049 31.5978 35.163C31.8128 35.281 32.0138 35.427 32.2398 35.523C32.6858 35.732 33.1408 35.921 33.6198 36.047C34.0858 36.217 34.5838 36.257 35.0658 36.369C34.5818 36.273 34.0798 36.247 33.6078 36.092C33.1228 35.98 32.6588 35.804 32.2008 35.606C31.9688 35.515 31.7608 35.375 31.5388 35.261C31.3138 35.151 31.1148 35 30.9118 34.854C30.7028 34.715 30.5068 34.561 30.3278 34.385C30.1408 34.219 29.9538 34.052 29.7948 33.857C29.4538 33.49 29.1558 33.082 28.8988 32.653C28.6358 32.226 28.4138 31.773 28.2368 31.304C27.8658 30.372 27.6468 29.387 27.4908 28.406L27.5358 28.494C27.4818 28.426 27.4158 28.334 27.3918 28.269C27.3758 28.196 27.3548 28.178 27.3418 28.06L27.3028 27.687L27.2248 26.942L27.0698 25.451L27.1698 25.597C27.0628 25.539 26.9728 25.458 26.9048 25.357C26.8728 25.296 26.8458 25.231 26.8238 25.166L26.8038 25.036L26.7968 24.487L26.7868 23.443L26.7748 21.352L26.7688 19.261L26.7658 18.216L26.7648 17.693C26.7508 17.542 26.7898 17.201 27.0278 17.034C27.7018 16.678 28.3278 16.446 28.9808 16.146C29.6468 15.916 30.3298 15.728 31.0038 15.518C31.6948 15.374 32.3928 15.263 33.0878 15.134L35.2028 15L37.3178 15.134C38.0128 15.262 38.7108 15.374 39.4018 15.518C40.0798 15.729 40.7688 15.92 41.4358 16.151L42.3928 16.572L42.8708 16.782L43.1098 16.887L43.2298 16.94C43.2998 16.975 43.3408 17.011 43.3958 17.049C43.4878 17.132 43.5668 17.24 43.6108 17.391C43.6298 17.456 43.6258 17.483 43.6348 17.531C43.6448 17.636 43.6378 17.635 43.6398 17.693L43.6388 18.216L43.6358 19.261L43.6298 21.352L43.6178 23.443L43.6088 24.488L43.6028 25.013C43.6018 25.258 43.4518 25.491 43.2348 25.597L43.3338 25.451L43.1788 26.942L43.1008 27.688L43.0618 28.061C43.0598 28.117 43.0268 28.216 43.0048 28.29C42.9738 28.366 42.9148 28.429 42.8678 28.495L42.9128 28.407C42.7428 29.401 42.4578 30.369 42.0518 31.288C41.8508 31.748 41.6228 32.197 41.3508 32.619C41.0878 33.046 40.7868 33.451 40.4528 33.825C40.2778 34.005 40.1258 34.207 39.9288 34.364C39.7368 34.525 39.5628 34.708 39.3568 34.851C39.1508 34.994 38.9498 35.144 38.7408 35.279L38.0808 35.636C37.8558 35.744 37.6178 35.822 37.3868 35.917C37.1588 36.021 36.9108 36.064 36.6708 36.129C36.1928 36.279 35.6938 36.297 35.2028 36.37Z" fill="white"/>
<path d="M28.4448 27.741C28.2188 27.004 28.0858 26.259 27.9898 25.509L27.9558 25.247L28.2298 25.245C28.4638 25.243 28.6978 25.232 28.9318 25.24L29.2158 25.249L29.1748 25.53C29.0608 26.306 28.9028 27.074 28.6578 27.84L28.6368 27.907L28.5968 27.872L28.4448 27.741ZM28.4448 27.741L28.6358 27.799L28.5738 27.831C28.5388 27.031 28.5918 26.233 28.6878 25.444L28.9308 25.734C28.6968 25.742 28.4628 25.73 28.2288 25.729L28.4688 25.465C28.5168 26.218 28.5268 26.975 28.4448 27.741Z" fill="white"/>
<path d="M28.7848 29.034C28.8628 29.07 28.9488 29.096 29.0338 29.089C29.1128 29.06 29.2128 29.064 29.2738 29.007C29.3268 28.942 29.4278 28.907 29.4378 28.815C29.4638 28.735 29.5018 28.658 29.5038 28.569L29.6298 27.54L29.8818 25.482L29.8848 25.455H29.9128C31.6768 25.446 33.4398 25.394 35.2038 25.366L40.4948 25.271L40.6818 25.268L40.7068 25.446L40.9948 27.532L41.1388 28.576C41.1178 28.55 41.1848 28.71 41.2038 28.767C41.2438 28.833 41.2708 28.777 41.2768 28.821C41.1978 28.796 41.5008 28.863 41.3808 28.849C41.5088 28.833 41.4658 28.831 41.5388 28.799L42.0068 28.594L41.8988 29.069C41.5308 30.69 40.8178 32.261 39.6838 33.51C39.3978 33.819 39.0838 34.101 38.7468 34.354C38.4028 34.599 38.0378 34.811 37.6538 34.987C37.2648 35.152 36.8638 35.279 36.4528 35.364C36.0388 35.441 35.6228 35.47 35.2048 35.473C34.7858 35.454 34.3848 35.411 33.9668 35.318C33.5608 35.218 33.1708 35.078 32.7948 34.902C32.4238 34.715 32.0748 34.494 31.7478 34.242C31.4278 33.982 31.1318 33.696 30.8568 33.391C29.7658 32.157 29.0988 30.605 28.7508 29.016H28.7518L28.7848 29.034ZM28.7848 29.034L28.7498 29.015C29.1218 30.599 29.8128 32.136 30.9108 33.34C31.1868 33.638 31.4948 33.903 31.8168 34.148C32.1468 34.383 32.4958 34.585 32.8618 34.752C33.2328 34.909 33.6158 35.03 34.0078 35.11L34.5968 35.192L35.2018 35.213C35.6018 35.195 35.9968 35.152 36.3858 35.064C36.7718 34.968 37.1438 34.834 37.5028 34.666C37.8558 34.487 38.1898 34.276 38.5028 34.034C38.8078 33.782 39.0968 33.513 39.3618 33.219C39.8878 32.627 40.3148 31.946 40.6518 31.225C40.9918 30.504 41.2328 29.738 41.4148 28.96L41.7748 29.23C41.7518 29.246 41.6588 29.286 41.5908 29.307C41.5038 29.336 41.4918 29.324 41.4388 29.334C41.1498 29.306 41.2778 29.32 41.0378 29.245C40.9258 29.164 40.7828 29.018 40.7488 28.931C40.7198 28.822 40.6908 28.826 40.6608 28.624L40.5348 27.592L40.2828 25.527L40.4938 25.701L35.2028 25.606C33.4388 25.578 31.6758 25.526 29.9118 25.517L29.9428 25.49L29.6598 27.543L29.5188 28.57C29.5148 28.657 29.4758 28.738 29.4468 28.821C29.4328 28.915 29.3328 28.947 29.2788 29.011C29.2108 29.07 29.1158 29.062 29.0348 29.091C28.9468 29.098 28.8628 29.071 28.7848 29.034Z" fill="white"/>
<path d="M41.9609 27.741L41.8109 27.872L41.7709 27.907L41.7499 27.84C41.5049 27.074 41.3479 26.306 41.2329 25.53L41.1909 25.25L41.4749 25.241C41.7089 25.233 41.9429 25.243 42.1769 25.246L42.4509 25.249L42.4169 25.511C42.3209 26.259 42.1879 27.004 41.9609 27.741ZM41.9609 27.741C41.8769 26.975 41.8879 26.217 41.9359 25.463L42.1759 25.728C41.9419 25.73 41.7079 25.74 41.4739 25.733L41.7169 25.444C41.8129 26.234 41.8659 27.032 41.8319 27.831L41.7709 27.799L41.9609 27.741Z" fill="white"/>
<path d="M27.9558 17.882L29.6688 17.12L31.4658 16.554L33.3178 16.196L35.2028 16.065L37.0938 16.148L38.9658 16.444L40.7928 16.957L42.5478 17.682L42.6728 17.733L42.6738 17.882L42.7008 24.52L42.7018 24.77L42.4518 24.769L35.2048 24.738L27.9578 24.66L27.8148 24.658L27.8178 24.519L27.9558 17.882ZM27.9558 17.882L28.0958 24.52L27.9558 24.38L35.2028 24.302L42.4498 24.271L42.2008 24.52L42.2278 17.882L42.3528 18.082L40.6498 17.362L38.8768 16.831L37.0548 16.495L35.2038 16.366L33.3468 16.447L31.5048 16.72L29.7028 17.198L27.9558 17.882Z" fill="white"/>
</svg>
