<svg width="280" height="138" viewBox="0 0 280 138" fill="none" xmlns="http://www.w3.org/2000/svg">
<path d="M16.0117 121.293C16.0117 121.293 15.772 120.853 18.3567 117.002C19.6691 115.048 22.0253 112.749 24.6205 110.724C40.0053 98.7138 58.4957 97.0879 73.4565 100.367C93.4325 104.746 109.604 93.3324 111.584 79.8441C112.835 71.3295 112.218 68.7567 115.623 63.4741C117.113 61.1634 120.83 58.1053 122.551 56.8883C126.622 54.0093 131.366 54.3682 133.784 54.7488C136.201 55.1288 138.51 55.4053 139.765 54.6573C141.02 53.9092 148.588 48.9789 150.51 47.5539C152.274 46.2467 153.064 46.3073 154.365 47.5842C155.665 48.861 157.826 51.9205 158.287 56.5847C158.867 62.4534 157.656 66.5369 153.63 70.1646C146.88 76.2453 143.237 84.9127 142.415 88.5108C141.594 92.1083 134.935 121.288 134.935 121.288L16.0117 121.293Z" fill="#A2C9A8"/>
<path d="M116.815 121.286C116.815 121.286 117.299 117.541 120.433 113.503C122.017 111.461 123.714 109.872 124.72 108.075C125.921 105.932 126.018 104.268 124.743 102.785C124.356 102.334 121.13 99.024 121.13 94.7805C121.13 94.7805 119.2 91.9377 118.577 85.6845C118.577 85.6845 124.202 88.6992 125.448 88.7604C125.448 88.7604 127.808 86.4418 130.587 86.1013C133.992 85.6845 135.082 86.6294 135.981 87.0226C136.72 87.3459 137.184 87.6126 138.586 87.5362C139.632 87.4796 141.045 87.0048 141.775 86.877C142.539 86.744 142.997 86.9291 143.42 87.3117C143.805 87.66 143.933 88.2125 144.07 88.68C144.197 89.1147 144.618 89.5361 144.828 90.35C145.356 92.3875 145.805 94.4519 144.353 96.4235C143.634 97.3994 143 97.9546 142.3 98.8185C140.733 100.754 141.311 101.756 142.375 102.716C144.039 104.218 151.234 109.306 147.525 121.286H116.815ZM0 120.542H279.704V123.654H0V120.542ZM36.8484 95.7452C36.8484 95.7452 43.373 5.72643 132.666 4.77291C150.868 4.57799 169.817 9.82173 182.733 17.5428C226.455 43.6792 230.347 96.7179 230.347 96.7179C230.347 96.7179 230.022 79.7131 222.096 59.1042C212.519 34.2045 186.672 0 132.694 0C81.877 0 52.2267 36.8168 43.4125 62.115C36.6483 81.5293 36.8484 95.7452 36.8484 95.7452Z" fill="#419A62"/>
<path d="M190.898 5.09753L167.363 23.7078L180.571 32.5068L190.898 5.09753Z" fill="#E03D17"/>
<path d="M156.082 115.971V100.586H162.563C163.957 100.586 165.039 100.938 165.808 101.643C166.577 102.348 166.961 103.372 166.961 104.717C166.961 106.276 166.346 107.371 165.116 108C166.739 108.586 167.551 109.824 167.551 111.712C167.551 113.099 167.17 114.156 166.408 114.882C165.647 115.608 164.565 115.971 163.163 115.971H156.082ZM158.722 107.184H162.133C163.578 107.184 164.301 106.465 164.301 105.028C164.301 103.605 163.578 102.893 162.133 102.893H158.722V107.184ZM158.722 113.664H162.723C164.189 113.664 164.923 112.959 164.923 111.55C164.923 110.105 164.19 109.383 162.723 109.383H158.722V113.664ZM170.84 115.971V100.586H177.502C178.847 100.586 179.904 101.009 180.672 101.858C181.442 102.705 181.826 103.859 181.826 105.317C181.826 106.769 181.441 107.919 180.672 108.767C179.903 109.614 178.846 110.038 177.502 110.038H173.479V115.971H170.84V115.971ZM173.478 107.731H177.04C177.662 107.731 178.168 107.518 178.558 107.093C178.948 106.667 179.143 106.075 179.143 105.317C179.143 104.559 178.948 103.965 178.558 103.536C178.168 103.107 177.662 102.892 177.04 102.892H173.478V107.731ZM185.006 115.971V100.586H194.877V102.893H187.645V107.163H193.847V109.362H187.645V113.664H194.898V115.971H185.006ZM198.186 115.971V100.586H200.74L205.16 107.774L209.569 100.586H212.037V115.971H209.483V105.275L205.964 111.004H204.28L200.739 105.275V115.971H198.186ZM215.142 115.971V115.091L218.2 109.995C217.342 109.673 216.669 109.112 216.183 108.31C215.696 107.51 215.453 106.548 215.453 105.424C215.453 103.886 215.854 102.696 216.655 101.852C217.456 101.007 218.6 100.585 220.088 100.585H226.44V115.97H223.801V110.262H220.904L217.556 115.97H215.142V115.971ZM218.136 105.489C218.136 107.177 218.962 108.021 220.614 108.021H223.801V102.892H220.614C218.962 102.893 218.136 103.758 218.136 105.489ZM236.096 115.971V100.586H242.576C243.971 100.586 245.053 100.938 245.821 101.643C246.59 102.348 246.974 103.372 246.974 104.717C246.974 106.276 246.359 107.371 245.129 108C246.752 108.586 247.564 109.824 247.564 111.712C247.564 113.099 247.184 114.156 246.422 114.882C245.66 115.608 244.578 115.971 243.177 115.971H236.096ZM238.735 107.184H242.147C243.591 107.184 244.314 106.465 244.314 105.028C244.314 103.605 243.591 102.893 242.147 102.893H238.735V107.184ZM238.735 113.664H242.737C244.203 113.664 244.936 112.959 244.936 111.55C244.936 110.105 244.203 109.383 242.737 109.383H238.735V113.664ZM250.852 115.971V100.586H260.723V102.893H253.492V107.163H259.693V109.362H253.492V113.664H260.744V115.971H250.852ZM262.499 102.893V100.586H274.054V102.893H269.591V115.971H266.961V102.893H262.499Z" fill="#419A62"/>
<path d="M156.395 136.019V128.856H159.412C160.061 128.856 160.565 129.02 160.923 129.348C161.281 129.676 161.46 130.153 161.46 130.779C161.46 131.505 161.173 132.014 160.6 132.307C161.356 132.581 161.734 133.157 161.734 134.036C161.734 134.682 161.557 135.174 161.202 135.512C160.847 135.849 160.343 136.019 159.691 136.019H156.395ZM157.624 131.928H159.212C159.884 131.928 160.221 131.593 160.221 130.924C160.221 130.261 159.884 129.929 159.212 129.929H157.624V131.928ZM157.624 134.945H159.487C160.169 134.945 160.511 134.617 160.511 133.961C160.511 133.288 160.17 132.952 159.487 132.952H157.624V134.945ZM163.266 136.019V128.856H167.861V129.93H164.495V131.918H167.382V132.942H164.495V134.945H167.872V136.019H163.266V136.019ZM168.687 129.93V128.856H174.067V129.93H171.989V136.019H170.765V129.93H168.687ZM175.294 136.019V128.856H179.889V129.93H176.522V131.918H179.409V132.942H176.522V134.945H179.899V136.019H175.294V136.019ZM181.43 136.019V128.856H184.531C185.158 128.856 185.649 129.054 186.008 129.448C186.366 129.842 186.544 130.38 186.544 131.059C186.544 131.735 186.365 132.27 186.008 132.665C185.649 133.059 185.158 133.257 184.531 133.257H182.659V136.019H181.43V136.019ZM182.659 132.183H184.317C184.606 132.183 184.842 132.084 185.023 131.886C185.205 131.688 185.296 131.412 185.296 131.059C185.296 130.706 185.205 130.43 185.023 130.23C184.841 130.031 184.606 129.931 184.317 129.931H182.659V132.183ZM188.025 136.019V128.856H189.254V133.821L192.366 128.856H193.49V136.019H192.262V131.059L189.155 136.019H188.025ZM195.43 136.019V128.856H196.659V131.898H199.626V128.856H200.855V136.019H199.626V132.972H196.659V136.019H195.43ZM202.081 136.019V135.609L204.639 128.856H205.848L208.406 135.609V136.019H207.197L206.563 134.251H203.86L203.215 136.019H202.081ZM204.229 133.227H206.192L205.223 130.494L204.229 133.227ZM209.626 136.019V128.856H212.728C213.354 128.856 213.846 129.054 214.204 129.448C214.562 129.842 214.741 130.38 214.741 131.059C214.741 131.735 214.562 132.27 214.204 132.665C213.846 133.059 213.354 133.257 212.728 133.257H210.855V136.019H209.626V136.019ZM210.855 132.183H212.513C212.803 132.183 213.038 132.084 213.219 131.886C213.401 131.688 213.492 131.412 213.492 131.059C213.492 130.706 213.401 130.43 213.219 130.23C213.038 130.031 212.803 129.931 212.513 129.931H210.855V132.183ZM216.222 136.019V128.856H217.451V131.898H220.418V128.856H221.647V136.019H220.418V132.972H217.451V136.019H216.222ZM223.587 136.019V128.856H224.816V131.618H226.689C227.315 131.618 227.807 131.816 228.165 132.21C228.523 132.605 228.702 133.142 228.702 133.821C228.702 134.497 228.523 135.033 228.165 135.427C227.807 135.822 227.315 136.019 226.689 136.019H223.587V136.019ZM224.816 134.945H226.474C226.764 134.945 227 134.846 227.181 134.648C227.362 134.449 227.453 134.174 227.453 133.821C227.453 133.468 227.362 133.192 227.181 132.992C226.999 132.793 226.764 132.692 226.474 132.692H224.816V134.945ZM229.606 136.019V128.856H230.83V136.019H229.606ZM232.77 136.019V128.856H233.999V133.821L237.111 128.856H238.235V136.019H237.006V131.059L233.899 136.019H232.77ZM233.854 127.058V126.932H234.818V127.035C234.818 127.202 234.876 127.332 234.993 127.426C235.109 127.52 235.279 127.567 235.502 127.567C235.965 127.567 236.196 127.389 236.196 127.035V126.932H237.151V127.058C237.151 127.487 237.002 127.823 236.703 128.064C236.405 128.305 236.005 128.426 235.502 128.426C235 128.426 234.599 128.305 234.301 128.064C234.003 127.823 233.854 127.487 233.854 127.058ZM242.73 136.019V128.856H243.959V134.945H246.801V128.856H248.03V134.945H248.869V137.452H247.745V136.019H242.73ZM250.245 136.019V128.856H254.84V129.93H251.474V131.918H254.361V132.942H251.474V134.945H254.851V136.019H250.245V136.019ZM256.381 136.019V128.856H257.61V131.898H260.577V128.856H261.806V136.019H260.577V132.972H257.61V136.019H256.381ZM263.032 129.93V128.856H268.411V129.93H266.334V136.019H265.11V129.93H263.032ZM269.638 136.019V128.856H272.739C273.365 128.856 273.857 129.054 274.216 129.448C274.574 129.842 274.752 130.38 274.752 131.059C274.752 131.735 274.573 132.27 274.216 132.665C273.857 133.059 273.365 133.257 272.739 133.257H270.866V136.019H269.638V136.019ZM270.866 132.183H272.525C272.814 132.183 273.05 132.084 273.231 131.886C273.413 131.688 273.504 131.412 273.504 131.059C273.504 130.706 273.413 130.43 273.231 130.23C273.049 130.031 272.814 129.931 272.525 129.931H270.866V132.183Z" fill="#419A62"/>
</svg>
